<?xml version="1.0" encoding="utf-8"?>
<svg version="1.1" xmlns:xlink="http://www.w3.org/1999/xlink" width="224px" height="6px" xmlns="http://www.w3.org/2000/svg">
  <defs>
    <mask fill="white" id="clip7">
      <path d="M 2.24 6  C 0.985600000000003 6  0 4.67999999999984  0 3  C 0 1.32000000000016  0.985600000000003 0  2.24 0  L 159.586976744186 0  L 221.76 0  C 223.0144 0  224 1.32000000000016  224 3  C 224 4.67999999999984  223.0144 6  221.76 6  L 106.191627906977 6  L 2.24 6  Z " fill-rule="evenodd" />
    </mask>
  </defs>
  <g transform="matrix(1 0 0 1 -679 -259 )">
    <path d="M 2.24 6  C 0.985600000000003 6  0 4.67999999999984  0 3  C 0 1.32000000000016  0.985600000000003 0  2.24 0  L 159.586976744186 0  L 221.76 0  C 223.0144 0  224 1.32000000000016  224 3  C 224 4.67999999999984  223.0144 6  221.76 6  L 106.191627906977 6  L 2.24 6  Z " fill-rule="nonzero" fill="#8c8c8c" stroke="none" transform="matrix(1 0 0 1 679 259 )" />
    <path d="M 2.24 6  C 0.985600000000003 6  0 4.67999999999984  0 3  C 0 1.32000000000016  0.985600000000003 0  2.24 0  L 159.586976744186 0  L 221.76 0  C 223.0144 0  224 1.32000000000016  224 3  C 224 4.67999999999984  223.0144 6  221.76 6  L 106.191627906977 6  L 2.24 6  Z " stroke-width="4" stroke="#8c8c8c" fill="none" transform="matrix(1 0 0 1 679 259 )" mask="url(#clip7)" />
  </g>
</svg>