<?xml version="1.0" encoding="utf-8"?>
<svg version="1.1" xmlns:xlink="http://www.w3.org/1999/xlink" width="43px" height="50px" xmlns="http://www.w3.org/2000/svg">
  <g transform="matrix(1 0 0 1 -227 -385 )">
    <path d="M 32.3619791666667 1.89732142857143  L 41.0963541666667 10.6026785714286  C 41.6189236111111 11.1235119047619  42.0668402777778 11.8303571428571  42.4401041666667 12.7232142857143  C 42.8133680555556 13.6160714285714  43 14.4345238095238  43 15.1785714285714  L 43 47.3214285714286  C 43 48.0654761904762  42.7387152777778 48.6979166666667  42.2161458333333 49.21875  C 41.6935763888889 49.7395833333333  41.0590277777778 50  40.3125 50  L 2.6875 50  C 1.94097222222222 50  1.30642361111111 49.7395833333333  0.783854166666667 49.21875  C 0.261284722222222 48.6979166666667  0 48.0654761904762  0 47.3214285714286  L 0 2.67857142857143  C 0 1.93452380952381  0.261284722222222 1.30208333333333  0.783854166666667 0.78125  C 1.30642361111111 0.260416666666669  1.94097222222222 0  2.6875 0  L 27.7708333333333 0  C 28.5173611111111 0  29.3385416666667 0.186011904761907  30.234375 0.558035714285715  C 31.1302083333333 0.930059523809523  31.8394097222222 1.37648809523809  32.3619791666667 1.89732142857143  Z M 29.814453125 4.40848214285715  C 29.5904947916667 4.18526785714285  29.2078993055556 3.98065476190476  28 3.79464285714285  L 28 15  L 39.1927083333333 15  C 39.0060763888889 13.7462797619048  38.80078125 13.3649553571429  38.5768229166667 13.1417410714286  L 29.814453125 4.40848214285715  Z M 4 46  L 39 46  L 39 18  L 27.7708333333333 18  C 27.0243055555556 17.8571428571429  26.3897569444444 17.5967261904762  25.8671875 17.0758928571429  C 25.3446180555556 16.5550595238095  25.0833333333333 15.922619047619  25 15.1785714285714  L 25 4  L 4 4  L 4 46  Z M 26.875 25  L 35.8333333333333 33.9285714285714  L 35.8333333333333 42  L 7.16666666666667 42  L 7.16666666666667 37.5  L 12.5416666666667 32.1428571428571  L 16.125 35.7142857142857  L 26.875 25  Z M 16.3489583333333 27.0089285714286  C 15.3038194444444 28.0505952380952  14.0347222222222 28.5714285714286  12.5416666666667 28.5714285714286  C 11.0486111111111 28.5714285714286  9.77951388888889 28.0505952380952  8.734375 27.0089285714286  C 7.68923611111111 25.9672619047619  7.16666666666667 24.7023809523809  7.16666666666667 23.2142857142857  C 7.16666666666667 21.7261904761905  7.68923611111111 20.4613095238095  8.734375 19.4196428571429  C 9.77951388888889 18.3779761904762  11.0486111111111 17.8571428571429  12.5416666666667 17.8571428571429  C 14.0347222222222 17.8571428571429  15.3038194444444 18.3779761904762  16.3489583333333 19.4196428571429  C 17.3940972222222 20.4613095238095  17.9166666666667 21.7261904761905  17.9166666666667 23.2142857142857  C 17.9166666666667 24.7023809523809  17.3940972222222 25.9672619047619  16.3489583333333 27.0089285714286  Z " fill-rule="nonzero" fill="#2d2d8d" stroke="none" transform="matrix(1 0 0 1 227 385 )" />
  </g>
</svg>