<?xml version="1.0" encoding="utf-8"?>
<svg version="1.1" xmlns:xlink="http://www.w3.org/1999/xlink" width="29px" height="205px" xmlns="http://www.w3.org/2000/svg">
  <g transform="matrix(1 0 0 1 -1041 -333 )">
    <path d="M 0.498281786941582 12.3246492985972  C 0.166093928980523 13.6940547762191  0 15.2688710754843  0 17.0490981963928  C 0 18.8293253173013  0.166093928980523 20.4041416165665  0.498281786941582 21.7735470941884  L 20.0807560137457 102.5  L 0.498281786941582 183.226452905812  C 0.166093928980523 184.595858383434  0 186.170674682699  0 187.950901803607  C 0 189.731128924516  0.166093928980523 191.305945223781  0.498281786941582 192.675350701403  L 2.98969072164948 202.945891783567  C 3.32187857961054 204.315297261189  3.70389461626575 205  4.13573883161512 205  C 4.56758304696449 205  4.9495990836197 204.315297261189  5.28178694158076 202.945891783567  L 28.5017182130584 107.224448897796  C 28.8339060710195 105.855043420174  29 104.280227120908  29 102.5  C 29 100.719772879092  28.8339060710195 99.1449565798263  28.5017182130584 97.7755511022044  L 5.28178694158076 2.05410821643287  C 4.9495990836197 0.684702738810948  4.56758304696449 0  4.13573883161512 0  C 3.70389461626575 0  3.32187857961054 0.684702738810948  2.98969072164948 2.05410821643287  L 0.498281786941582 12.3246492985972  Z " fill-rule="nonzero" fill="#000000" stroke="none" transform="matrix(1 0 0 1 1041 333 )" />
  </g>
</svg>