<?xml version="1.0" encoding="utf-8"?>
<svg version="1.1" xmlns:xlink="http://www.w3.org/1999/xlink" width="29px" height="205px" xmlns="http://www.w3.org/2000/svg">
  <g transform="matrix(1 0 0 1 -12 -308 )">
    <path d="M 28.5017182130584 12.3246492985972  C 28.8339060710195 13.6940547762191  29 15.2688710754843  29 17.0490981963928  C 29 18.8293253173013  28.8339060710195 20.4041416165665  28.5017182130584 21.7735470941884  L 8.9192439862543 102.5  L 28.5017182130584 183.226452905812  C 28.8339060710195 184.595858383434  29 186.170674682699  29 187.950901803607  C 29 189.731128924516  28.8339060710195 191.305945223781  28.5017182130584 192.675350701403  L 26.0103092783505 202.945891783567  C 25.6781214203895 204.315297261189  25.2961053837343 205  24.8642611683849 205  C 24.4324169530355 205  24.0504009163803 204.315297261189  23.7182130584192 202.945891783567  L 0.498281786941581 107.224448897796  C 0.166093928980527 105.855043420174  0 104.280227120908  0 102.5  C 0 100.719772879092  0.166093928980527 99.1449565798263  0.498281786941581 97.7755511022044  L 23.7182130584192 2.05410821643287  C 24.0504009163803 0.684702738810948  24.4324169530355 0  24.8642611683849 0  C 25.2961053837343 0  25.6781214203895 0.684702738810948  26.0103092783505 2.05410821643287  L 28.5017182130584 12.3246492985972  Z " fill-rule="nonzero" fill="#000000" stroke="none" transform="matrix(1 0 0 1 12 308 )" />
  </g>
</svg>