<?xml version="1.0" encoding="utf-8"?>
<svg version="1.1" xmlns:xlink="http://www.w3.org/1999/xlink" width="23px" height="67px" xmlns="http://www.w3.org/2000/svg">
  <g transform="matrix(1 0 0 1 -27 -380 )">
    <path d="M 22.6048109965636 4.02805611222445  C 22.8682703321879 4.4756179024716  23 4.99031396125584  23 5.57214428857716  C 23 6.15397461589846  22.8682703321879 6.6686706746827  22.6048109965636 7.11623246492986  L 7.07388316151203 33.5  L 22.6048109965636 59.8837675350701  C 22.8682703321879 60.3313293253173  23 60.8460253841015  23 61.4278557114228  C 23 62.0096860387442  22.8682703321879 62.5243820975284  22.6048109965636 62.9719438877756  L 20.6288659793814 66.3286573146293  C 20.3654066437572 66.7762191048764  20.0624284077892 67  19.7199312714777 67  C 19.3774341351661 67  19.0744558991982 66.7762191048764  18.8109965635739 66.3286573146293  L 0.395189003436426 35.0440881763527  C 0.131729667812142 34.5965263861055  0 34.0818303273213  0 33.5  C 0 32.9181696726787  0.131729667812142 32.4034736138945  0.395189003436426 31.9559118236473  L 18.8109965635739 0.671342685370742  C 19.0744558991982 0.223780895123578  19.3774341351661 0  19.7199312714777 0  C 20.0624284077892 0  20.3654066437572 0.223780895123578  20.6288659793814 0.671342685370742  L 22.6048109965636 4.02805611222445  Z " fill-rule="nonzero" fill="#000000" stroke="none" transform="matrix(1 0 0 1 27 380 )" />
  </g>
</svg>