<?xml version="1.0" encoding="utf-8"?>
<svg version="1.1" xmlns:xlink="http://www.w3.org/1999/xlink" width="23px" height="67px" xmlns="http://www.w3.org/2000/svg">
  <g transform="matrix(1 0 0 1 -1030 -380 )">
    <path d="M 22.6048109965636 31.9559118236473  C 22.8682703321879 32.4034736138945  23 32.9181696726787  23 33.5  C 23 34.0818303273213  22.8682703321879 34.5965263861055  22.6048109965636 35.0440881763527  L 4.18900343642612 66.3286573146293  C 3.92554410080183 66.7762191048764  3.62256586483391 67  3.28006872852234 67  C 2.93757159221077 67  2.63459335624284 66.7762191048764  2.37113402061856 66.3286573146293  L 0.395189003436426 62.9719438877756  C 0.131729667812142 62.5243820975284  0 62.0096860387442  0 61.4278557114228  C 0 60.8460253841015  0.131729667812142 60.3313293253173  0.395189003436426 59.8837675350701  L 15.926116838488 33.5  L 0.395189003436426 7.11623246492986  C 0.131729667812142 6.6686706746827  0 6.15397461589846  0 5.57214428857716  C 0 4.99031396125584  0.131729667812142 4.4756179024716  0.395189003436426 4.02805611222445  L 2.37113402061856 0.671342685370742  C 2.63459335624284 0.223780895123578  2.93757159221077 0  3.28006872852234 0  C 3.62256586483391 0  3.92554410080183 0.223780895123578  4.18900343642612 0.671342685370742  L 22.6048109965636 31.9559118236473  Z " fill-rule="nonzero" fill="#000000" stroke="none" transform="matrix(1 0 0 1 1030 380 )" />
  </g>
</svg>