<?xml version="1.0" encoding="utf-8"?>
<svg version="1.1" xmlns:xlink="http://www.w3.org/1999/xlink" width="358px" height="100px" xmlns="http://www.w3.org/2000/svg">
  <g transform="matrix(1 0 0 1 -372 -720 )">
    <path d="M 354.412825651303 45.9627329192547  C 356.804275217101 46.6528640441684  358 47.4465148378192  358 48.343685300207  C 358 49.2408557625949  356.804275217101 50.0345065562457  354.412825651303 50.7246376811594  L 187.250501002004 98.9648033126294  C 184.859051436206 99.6549344375431  182.108884435538 100  179 100  C 175.891115564462 100  173.140948563794 99.6549344375431  170.749498997996 98.9648033126294  L 3.58717434869739 50.7246376811594  C 1.19572478289914 50.0345065562457  0 49.2408557625949  0 48.343685300207  C 0 47.4465148378192  1.19572478289914 46.6528640441684  3.58717434869739 45.9627329192547  L 21.5230460921844 40.7867494824017  C 23.9144956579826 40.0966183574879  26.6646626586506 39.7515527950311  29.7735470941884 39.7515527950311  C 32.8824315297261 39.7515527950311  35.6325985303941 40.0966183574879  38.0240480961924 40.7867494824017  L 179 81.4699792960663  L 319.975951903808 40.7867494824017  C 322.367401469606 40.0966183574879  325.117568470274 39.7515527950311  328.226452905812 39.7515527950311  C 331.335337341349 39.7515527950311  334.085504342017 40.0966183574879  336.476953907816 40.7867494824017  L 354.412825651303 45.9627329192547  Z M 354.412825651303 6.2111801242236  C 356.804275217101 6.90131124913732  358 7.69496204278812  358 8.59213250517599  C 358 9.48930296756382  356.804275217101 10.2829537612146  354.412825651303 10.9730848861284  L 187.250501002004 59.2132505175983  C 184.859051436206 59.9033816425121  182.108884435538 60.2484472049689  179 60.2484472049689  C 175.891115564462 60.2484472049689  173.140948563794 59.9033816425121  170.749498997996 59.2132505175983  L 3.58717434869739 10.9730848861284  C 1.19572478289914 10.2829537612146  0 9.48930296756382  0 8.59213250517599  C 0 7.69496204278812  1.19572478289914 6.90131124913732  3.58717434869739 6.2111801242236  L 21.5230460921844 1.0351966873706  C 23.9144956579826 0.345065562456859  26.6646626586506 0  29.7735470941884 0  C 32.8824315297261 0  35.6325985303941 0.345065562456859  38.0240480961924 1.0351966873706  L 179 41.7184265010352  L 319.975951903808 1.0351966873706  C 322.367401469606 0.345065562456859  325.117568470274 0  328.226452905812 0  C 331.335337341349 0  334.085504342017 0.345065562456859  336.476953907816 1.0351966873706  L 354.412825651303 6.2111801242236  Z " fill-rule="nonzero" fill="#000000" stroke="none" transform="matrix(1 0 0 1 372 720 )" />
  </g>
</svg>