<?xml version="1.0" encoding="utf-8"?>
<svg version="1.1" xmlns:xlink="http://www.w3.org/1999/xlink" width="35px" height="35px" viewBox="50 49  35 35" xmlns="http://www.w3.org/2000/svg">
  <path d="M 51.5 51  A 0.5 0.5 0 0 1 52 50.5 L 83 50.5  A 0.5 0.5 0 0 1 83.5 51 L 83.5 82  A 0.5 0.5 0 0 1 83 82.5 L 52 82.5  A 0.5 0.5 0 0 1 51.5 82 L 51.5 51  Z " fill-rule="nonzero" fill="#ffffff" stroke="none" fill-opacity="0" />
  <path d="M 51 51  A 1 1 0 0 1 52 50 L 83 50  A 1 1 0 0 1 84 51 L 84 82  A 1 1 0 0 1 83 83 L 52 83  A 1 1 0 0 1 51 82 L 51 51  Z " stroke-width="2" stroke="#0f62fe" fill="none" />
</svg>