<?xml version="1.0" encoding="utf-8"?>
<svg version="1.1" xmlns:xlink="http://www.w3.org/1999/xlink" width="35px" height="35px" viewBox="42 31  35 35" xmlns="http://www.w3.org/2000/svg">
  <path d="M 42.5 33  A 1.5 1.5 0 0 1 44 31.5 L 75 31.5  A 1.5 1.5 0 0 1 76.5 33 L 76.5 64  A 1.5 1.5 0 0 1 75 65.5 L 44 65.5  A 1.5 1.5 0 0 1 42.5 64 L 42.5 33  Z " fill-rule="nonzero" fill="#ffffff" stroke="none" fill-opacity="0" />
  <path d="M 42.5 33  A 1.5 1.5 0 0 1 44 31.5 L 75 31.5  A 1.5 1.5 0 0 1 76.5 33 L 76.5 64  A 1.5 1.5 0 0 1 75 65.5 L 44 65.5  A 1.5 1.5 0 0 1 42.5 64 L 42.5 33  Z " stroke-width="1" stroke="#c6c6c6" fill="none" />
</svg>