<?xml version="1.0" encoding="utf-8"?>
<svg version="1.1" xmlns:xlink="http://www.w3.org/1999/xlink" width="35px" height="35px" viewBox="42 134  35 35" xmlns="http://www.w3.org/2000/svg">
  <path d="M 43.5 136  A 0.5 0.5 0 0 1 44 135.5 L 75 135.5  A 0.5 0.5 0 0 1 75.5 136 L 75.5 167  A 0.5 0.5 0 0 1 75 167.5 L 44 167.5  A 0.5 0.5 0 0 1 43.5 167 L 43.5 136  Z " fill-rule="nonzero" fill="#ffffff" stroke="none" fill-opacity="0" />
  <path d="M 43 136  A 1 1 0 0 1 44 135 L 75 135  A 1 1 0 0 1 76 136 L 76 167  A 1 1 0 0 1 75 168 L 44 168  A 1 1 0 0 1 43 167 L 43 136  Z " stroke-width="2" stroke="#0f62fe" fill="none" />
</svg>