<?xml version="1.0" encoding="utf-8"?>
<svg version="1.1" xmlns:xlink="http://www.w3.org/1999/xlink" width="35px" height="35px" viewBox="50 132  35 35" xmlns="http://www.w3.org/2000/svg">
  <path d="M 50.5 134  A 1.5 1.5 0 0 1 52 132.5 L 83 132.5  A 1.5 1.5 0 0 1 84.5 134 L 84.5 165  A 1.5 1.5 0 0 1 83 166.5 L 52 166.5  A 1.5 1.5 0 0 1 50.5 165 L 50.5 134  Z " fill-rule="nonzero" fill="#ffffff" stroke="none" fill-opacity="0" />
  <path d="M 50.5 134  A 1.5 1.5 0 0 1 52 132.5 L 83 132.5  A 1.5 1.5 0 0 1 84.5 134 L 84.5 165  A 1.5 1.5 0 0 1 83 166.5 L 52 166.5  A 1.5 1.5 0 0 1 50.5 165 L 50.5 134  Z " stroke-width="1" stroke="#c6c6c6" fill="none" />
  <path d="M 57.5 149.5  L 65 157  " stroke-width="7.5" stroke="#c6c6c6" fill="none" />
  <path d="M 65 157  L 77.5 139.5  " stroke-width="7.5" stroke="#c6c6c6" fill="none" />
</svg>