<?xml version="1.0" encoding="utf-8"?>
<svg version="1.1" xmlns:xlink="http://www.w3.org/1999/xlink" width="35px" height="35px" viewBox="50 102  35 35" xmlns="http://www.w3.org/2000/svg">
  <path d="M 51.5 104  A 0.5 0.5 0 0 1 52 103.5 L 83 103.5  A 0.5 0.5 0 0 1 83.5 104 L 83.5 135  A 0.5 0.5 0 0 1 83 135.5 L 52 135.5  A 0.5 0.5 0 0 1 51.5 135 L 51.5 104  Z " fill-rule="nonzero" fill="#ffffff" stroke="none" fill-opacity="0" />
  <path d="M 51 104  A 1 1 0 0 1 52 103 L 83 103  A 1 1 0 0 1 84 104 L 84 135  A 1 1 0 0 1 83 136 L 52 136  A 1 1 0 0 1 51 135 L 51 104  Z " stroke-width="2" stroke="#0f62fe" fill="none" />
</svg>