<?xml version="1.0" encoding="utf-8"?>
<svg version="1.1" xmlns:xlink="http://www.w3.org/1999/xlink" width="35px" height="35px" viewBox="50 82  35 35" xmlns="http://www.w3.org/2000/svg">
  <path d="M 51.5 84  A 0.5 0.5 0 0 1 52 83.5 L 83 83.5  A 0.5 0.5 0 0 1 83.5 84 L 83.5 115  A 0.5 0.5 0 0 1 83 115.5 L 52 115.5  A 0.5 0.5 0 0 1 51.5 115 L 51.5 84  Z " fill-rule="nonzero" fill="#ffffff" stroke="none" fill-opacity="0" />
  <path d="M 51 84  A 1 1 0 0 1 52 83 L 83 83  A 1 1 0 0 1 84 84 L 84 115  A 1 1 0 0 1 83 116 L 52 116  A 1 1 0 0 1 51 115 L 51 84  Z " stroke-width="2" stroke="#0f62fe" fill="none" />
</svg>