<?xml version="1.0" encoding="utf-8"?>
<svg version="1.1" xmlns:xlink="http://www.w3.org/1999/xlink" width="35px" height="35px" viewBox="50 152  35 35" xmlns="http://www.w3.org/2000/svg">
  <path d="M 51.5 154  A 0.5 0.5 0 0 1 52 153.5 L 83 153.5  A 0.5 0.5 0 0 1 83.5 154 L 83.5 185  A 0.5 0.5 0 0 1 83 185.5 L 52 185.5  A 0.5 0.5 0 0 1 51.5 185 L 51.5 154  Z " fill-rule="nonzero" fill="#ffffff" stroke="none" fill-opacity="0" />
  <path d="M 51 154  A 1 1 0 0 1 52 153 L 83 153  A 1 1 0 0 1 84 154 L 84 185  A 1 1 0 0 1 83 186 L 52 186  A 1 1 0 0 1 51 185 L 51 154  Z " stroke-width="2" stroke="#0f62fe" fill="none" />
</svg>