<?xml version="1.0" encoding="utf-8"?>
<svg version="1.1" xmlns:xlink="http://www.w3.org/1999/xlink" width="35px" height="35px" viewBox="50 29  35 35" xmlns="http://www.w3.org/2000/svg">
  <path d="M 51.5 31  A 0.5 0.5 0 0 1 52 30.5 L 83 30.5  A 0.5 0.5 0 0 1 83.5 31 L 83.5 62  A 0.5 0.5 0 0 1 83 62.5 L 52 62.5  A 0.5 0.5 0 0 1 51.5 62 L 51.5 31  Z " fill-rule="nonzero" fill="#ffffff" stroke="none" fill-opacity="0" />
  <path d="M 51 31  A 1 1 0 0 1 52 30 L 83 30  A 1 1 0 0 1 84 31 L 84 62  A 1 1 0 0 1 83 63 L 52 63  A 1 1 0 0 1 51 62 L 51 31  Z " stroke-width="2" stroke="#0f62fe" fill="none" />
</svg>