<?xml version="1.0" encoding="utf-8"?>
<svg version="1.1" xmlns:xlink="http://www.w3.org/1999/xlink" width="35px" height="35px" viewBox="50 102  35 35" xmlns="http://www.w3.org/2000/svg">
  <path d="M 50.5 104  A 1.5 1.5 0 0 1 52 102.5 L 83 102.5  A 1.5 1.5 0 0 1 84.5 104 L 84.5 135  A 1.5 1.5 0 0 1 83 136.5 L 52 136.5  A 1.5 1.5 0 0 1 50.5 135 L 50.5 104  Z " fill-rule="nonzero" fill="#ffffff" stroke="none" fill-opacity="0" />
  <path d="M 50.5 104  A 1.5 1.5 0 0 1 52 102.5 L 83 102.5  A 1.5 1.5 0 0 1 84.5 104 L 84.5 135  A 1.5 1.5 0 0 1 83 136.5 L 52 136.5  A 1.5 1.5 0 0 1 50.5 135 L 50.5 104  Z " stroke-width="1" stroke="#c6c6c6" fill="none" />
  <path d="M 57.5 119.5  L 65 127  " stroke-width="7.5" stroke="#c6c6c6" fill="none" />
  <path d="M 65 127  L 77.5 109.5  " stroke-width="7.5" stroke="#c6c6c6" fill="none" />
</svg>