<?xml version="1.0" encoding="utf-8"?>
<svg version="1.1" xmlns:xlink="http://www.w3.org/1999/xlink" width="35px" height="35px" viewBox="42 134  35 35" xmlns="http://www.w3.org/2000/svg">
  <path d="M 42.5 136  A 1.5 1.5 0 0 1 44 134.5 L 75 134.5  A 1.5 1.5 0 0 1 76.5 136 L 76.5 167  A 1.5 1.5 0 0 1 75 168.5 L 44 168.5  A 1.5 1.5 0 0 1 42.5 167 L 42.5 136  Z " fill-rule="nonzero" fill="#ffffff" stroke="none" fill-opacity="0" />
  <path d="M 42.5 136  A 1.5 1.5 0 0 1 44 134.5 L 75 134.5  A 1.5 1.5 0 0 1 76.5 136 L 76.5 167  A 1.5 1.5 0 0 1 75 168.5 L 44 168.5  A 1.5 1.5 0 0 1 42.5 167 L 42.5 136  Z " stroke-width="1" stroke="#c6c6c6" fill="none" />
</svg>