<?xml version="1.0" encoding="utf-8"?>
<svg version="1.1" xmlns:xlink="http://www.w3.org/1999/xlink" width="35px" height="35px" viewBox="50 82  35 35" xmlns="http://www.w3.org/2000/svg">
  <path d="M 50.5 84  A 1.5 1.5 0 0 1 52 82.5 L 83 82.5  A 1.5 1.5 0 0 1 84.5 84 L 84.5 115  A 1.5 1.5 0 0 1 83 116.5 L 52 116.5  A 1.5 1.5 0 0 1 50.5 115 L 50.5 84  Z " fill-rule="nonzero" fill="#ffffff" stroke="none" fill-opacity="0" />
  <path d="M 50.5 84  A 1.5 1.5 0 0 1 52 82.5 L 83 82.5  A 1.5 1.5 0 0 1 84.5 84 L 84.5 115  A 1.5 1.5 0 0 1 83 116.5 L 52 116.5  A 1.5 1.5 0 0 1 50.5 115 L 50.5 84  Z " stroke-width="1" stroke="#161616" fill="none" />
</svg>