<?xml version="1.0" encoding="utf-8"?>
<svg version="1.1" xmlns:xlink="http://www.w3.org/1999/xlink" width="35px" height="35px" viewBox="42 84  35 35" xmlns="http://www.w3.org/2000/svg">
  <path d="M 42.5 86  A 1.5 1.5 0 0 1 44 84.5 L 75 84.5  A 1.5 1.5 0 0 1 76.5 86 L 76.5 117  A 1.5 1.5 0 0 1 75 118.5 L 44 118.5  A 1.5 1.5 0 0 1 42.5 117 L 42.5 86  Z " fill-rule="nonzero" fill="#ffffff" stroke="none" fill-opacity="0" />
  <path d="M 42.5 86  A 1.5 1.5 0 0 1 44 84.5 L 75 84.5  A 1.5 1.5 0 0 1 76.5 86 L 76.5 117  A 1.5 1.5 0 0 1 75 118.5 L 44 118.5  A 1.5 1.5 0 0 1 42.5 117 L 42.5 86  Z " stroke-width="1" stroke="#c6c6c6" fill="none" />
</svg>