<?xml version="1.0" encoding="utf-8"?>
<svg version="1.1" xmlns:xlink="http://www.w3.org/1999/xlink" width="30px" height="30px" viewBox="10 70  30 30" xmlns="http://www.w3.org/2000/svg">
  <path d="M 10.5 72  A 1.5 1.5 0 0 1 12 70.5 L 38 70.5  A 1.5 1.5 0 0 1 39.5 72 L 39.5 98  A 1.5 1.5 0 0 1 38 99.5 L 12 99.5  A 1.5 1.5 0 0 1 10.5 98 L 10.5 72  Z " fill-rule="nonzero" fill="#ffffff" stroke="none" />
  <path d="M 10.5 72  A 1.5 1.5 0 0 1 12 70.5 L 38 70.5  A 1.5 1.5 0 0 1 39.5 72 L 39.5 98  A 1.5 1.5 0 0 1 38 99.5 L 12 99.5  A 1.5 1.5 0 0 1 10.5 98 L 10.5 72  Z " stroke-width="1" stroke="#8c8c8c" fill="none" />
  <path d="M 16.4285714285714 85  L 22.8571428571429 91.4285714285714  " stroke-width="6.42857142857143" stroke="#8c8c8c" fill="none" />
  <path d="M 22.8571428571429 91.4285714285714  L 33.5714285714286 76.4285714285714  " stroke-width="6.42857142857143" stroke="#8c8c8c" fill="none" />
</svg>