<?xml version="1.0" encoding="utf-8"?>
<svg version="1.1" xmlns:xlink="http://www.w3.org/1999/xlink" width="30px" height="30px" viewBox="354 13  30 30" xmlns="http://www.w3.org/2000/svg">
  <path d="M 354.5 15  A 1.5 1.5 0 0 1 356 13.5 L 382 13.5  A 1.5 1.5 0 0 1 383.5 15 L 383.5 41  A 1.5 1.5 0 0 1 382 42.5 L 356 42.5  A 1.5 1.5 0 0 1 354.5 41 L 354.5 15  Z " fill-rule="nonzero" fill="#ffffff" stroke="none" />
  <path d="M 354.5 15  A 1.5 1.5 0 0 1 356 13.5 L 382 13.5  A 1.5 1.5 0 0 1 383.5 15 L 383.5 41  A 1.5 1.5 0 0 1 382 42.5 L 356 42.5  A 1.5 1.5 0 0 1 354.5 41 L 354.5 15  Z " stroke-width="1" stroke="#8c8c8c" fill="none" />
  <path d="M 360.428571428571 28  L 366.857142857143 34.4285714285714  " stroke-width="6.42857142857143" stroke="#8c8c8c" fill="none" />
  <path d="M 366.857142857143 34.4285714285714  L 377.571428571429 19.4285714285714  " stroke-width="6.42857142857143" stroke="#8c8c8c" fill="none" />
</svg>