<?xml version="1.0" encoding="utf-8"?>
<svg version="1.1" xmlns:xlink="http://www.w3.org/1999/xlink" width="30px" height="30px" viewBox="354 70  30 30" xmlns="http://www.w3.org/2000/svg">
  <path d="M 354.5 72  A 1.5 1.5 0 0 1 356 70.5 L 382 70.5  A 1.5 1.5 0 0 1 383.5 72 L 383.5 98  A 1.5 1.5 0 0 1 382 99.5 L 356 99.5  A 1.5 1.5 0 0 1 354.5 98 L 354.5 72  Z " fill-rule="nonzero" fill="#ffffff" stroke="none" />
  <path d="M 354.5 72  A 1.5 1.5 0 0 1 356 70.5 L 382 70.5  A 1.5 1.5 0 0 1 383.5 72 L 383.5 98  A 1.5 1.5 0 0 1 382 99.5 L 356 99.5  A 1.5 1.5 0 0 1 354.5 98 L 354.5 72  Z " stroke-width="1" stroke="#8c8c8c" fill="none" />
</svg>