<?xml version="1.0" encoding="utf-8"?>
<svg version="1.1" xmlns:xlink="http://www.w3.org/1999/xlink" width="30px" height="30px" viewBox="354 115  30 30" xmlns="http://www.w3.org/2000/svg">
  <path d="M 354.5 117  A 1.5 1.5 0 0 1 356 115.5 L 382 115.5  A 1.5 1.5 0 0 1 383.5 117 L 383.5 143  A 1.5 1.5 0 0 1 382 144.5 L 356 144.5  A 1.5 1.5 0 0 1 354.5 143 L 354.5 117  Z " fill-rule="nonzero" fill="#ffffff" stroke="none" />
  <path d="M 354.5 117  A 1.5 1.5 0 0 1 356 115.5 L 382 115.5  A 1.5 1.5 0 0 1 383.5 117 L 383.5 143  A 1.5 1.5 0 0 1 382 144.5 L 356 144.5  A 1.5 1.5 0 0 1 354.5 143 L 354.5 117  Z " stroke-width="1" stroke="#8c8c8c" fill="none" />
  <path d="M 360.428571428571 130  L 366.857142857143 136.428571428571  " stroke-width="6.42857142857143" stroke="#8c8c8c" fill="none" />
  <path d="M 366.857142857143 136.428571428571  L 377.571428571429 121.428571428571  " stroke-width="6.42857142857143" stroke="#8c8c8c" fill="none" />
</svg>