<?xml version="1.0" encoding="utf-8"?>
<svg version="1.1" xmlns:xlink="http://www.w3.org/1999/xlink" width="80px" height="80px" xmlns="http://www.w3.org/2000/svg">
  <g transform="matrix(1 0 0 1 -110 -51 )">
    <path d="M 150 51  C 172.4 51  190 68.6  190 91  C 190 113.4  172.4 131  150 131  C 127.6 131  110 113.4  110 91  C 110 68.6  127.6 51  150 51  Z " fill-rule="nonzero" fill="#fde824" stroke="none" fill-opacity="0.972549019607843" />
    <path d="M 150 51.5  C 172.12 51.5  189.5 68.88  189.5 91  C 189.5 113.12  172.12 130.5  150 130.5  C 127.88 130.5  110.5 113.12  110.5 91  C 110.5 68.88  127.88 51.5  150 51.5  Z " stroke-width="1" stroke="#797979" fill="none" />
  </g>
</svg>