<?xml version="1.0" encoding="utf-8"?>
<svg version="1.1" xmlns:xlink="http://www.w3.org/1999/xlink" width="80px" height="80px" xmlns="http://www.w3.org/2000/svg">
  <g transform="matrix(1 0 0 1 -360 -51 )">
    <path d="M 400 51  C 422.4 51  440 68.6  440 91  C 440 113.4  422.4 131  400 131  C 377.6 131  360 113.4  360 91  C 360 68.6  377.6 51  400 51  Z " fill-rule="nonzero" fill="#ff0000" stroke="none" />
    <path d="M 400 51.5  C 422.12 51.5  439.5 68.88  439.5 91  C 439.5 113.12  422.12 130.5  400 130.5  C 377.88 130.5  360.5 113.12  360.5 91  C 360.5 68.88  377.88 51.5  400 51.5  Z " stroke-width="1" stroke="#797979" fill="none" />
  </g>
</svg>