<?xml version="1.0" encoding="utf-8"?>
<svg version="1.1" xmlns:xlink="http://www.w3.org/1999/xlink" width="65px" height="65px" xmlns="http://www.w3.org/2000/svg">
  <g transform="matrix(1 0 0 1 -165 -549 )">
    <path d="M 53.701171875 41.4422452952628  C 54.9142795138889 38.588038070517  55.5208333333333 35.6002595717067  55.5208333333333 32.4789097988319  C 55.5208333333333 27.9515466147523  54.2936197916667 23.803807051698  51.8391927083333 20.035691109669  L 19.931640625 51.7975340687865  C 23.7966579861111 54.3002379407311  27.9861111111111 55.5515898767034  32.5 55.5515898767034  C 35.6315104166667 55.5515898767034  38.6149088541667 54.9399740428293  41.4501953125 53.7167423750811  C 44.2854817708333 52.4935107073329  46.7328559027778 50.8555050832793  48.7923177083333 48.8027255029202  C 50.8517795138889 46.7499459225611  52.4880642361111 44.2964525200086  53.701171875 41.4422452952628  Z M 9.47916666666667 32.4789097988319  C 9.47916666666667 37.0343932511356  10.7345920138889 41.2383733506381  13.2454427083333 45.0908500973394  L 45.1953125 13.2868267358858  C 41.38671875 10.727882327493  37.1549479166667 9.44841012329656  32.5 9.44841012329656  C 28.3246527777778 9.44841012329656  24.4737413194444 10.4747999134761  20.947265625 12.5275794938352  C 17.4207899305556 14.5803590741942  14.6278211805556 17.3783257624919  12.568359375 20.9214795587281  C 10.5088975694444 24.4646333549643  9.47916666666667 28.3171101016656  9.47916666666667 32.4789097988319  Z M 62.4186197916667 19.8458792991564  C 64.1395399305555 23.8530175210902  65 28.0640276876487  65 32.4789097988319  C 65 36.8937919100151  64.1395399305555 41.1118321436297  62.4186197916667 45.1330304996755  C 60.6976996527778 49.1542288557214  58.3913845486111 52.6130218472853  55.4996744791667 55.5094094743673  C 52.6079644097222 58.4057971014493  49.1520182291667 60.7116590958252  45.1318359375 62.4269954574951  C 41.1116536458333 64.1423318191651  36.9010416666667 65  32.5 65  C 28.0989583333333 65  23.8883463541667 64.1423318191651  19.8681640625 62.4269954574951  C 15.8479817708333 60.7116590958252  12.3920355902778 58.4057971014493  9.50032552083333 55.5094094743673  C 6.60861545138889 52.6130218472853  4.30230034722222 49.1542288557214  2.58138020833333 45.1330304996755  C 0.860460069444445 41.1118321436297  0 36.8937919100151  0 32.4789097988319  C 0 28.0640276876487  0.860460069444445 23.8530175210902  2.58138020833333 19.8458792991564  C 4.30230034722222 15.8387410772226  6.60861545138889 12.3869781527147  9.50032552083333 9.49059052563271  C 12.3920355902778 6.59420289855072  15.8479817708333 4.28834090417477  19.8681640625 2.57300454250487  C 23.8883463541667 0.85766818083495  28.0989583333333 0  32.5 0  C 36.9010416666667 0  41.1116536458333 0.85766818083495  45.1318359375 2.57300454250487  C 49.1520182291667 4.28834090417477  52.6079644097222 6.59420289855072  55.4996744791667 9.49059052563271  C 58.3913845486111 12.3869781527147  60.6976996527778 15.8387410772226  62.4186197916667 19.8458792991564  Z " fill-rule="nonzero" fill="#000000" stroke="none" transform="matrix(1 0 0 1 165 549 )" />
  </g>
</svg>