<?xml version="1.0" encoding="utf-8"?>
<svg version="1.1" xmlns:xlink="http://www.w3.org/1999/xlink" width="80px" height="80px" xmlns="http://www.w3.org/2000/svg">
  <g transform="matrix(1 0 0 1 -160 -46 )">
    <path d="M 66.09375 51.0058403634004  C 67.5868055555556 47.492969932944  68.3333333333333 43.8157040882544  68.3333333333333 39.9740428293316  C 68.3333333333333 34.401903525849  66.8229166666667 29.2969932943976  63.8020833333333 24.6593121349773  L 24.53125 63.7508111615834  C 29.2881944444444 66.8310620808998  34.4444444444444 68.3711875405581  40 68.3711875405581  C 43.8541666666667 68.3711875405581  47.5260416666667 67.6184295911746  51.015625 66.1129136924075  C 54.5052083333333 64.6073977936405  57.5173611111111 62.5913908717283  60.0520833333333 60.064892926671  C 62.5868055555556 57.5383949816137  64.6006944444445 54.5187107938568  66.09375 51.0058403634004  Z M 11.6666666666667 39.9740428293316  C 11.6666666666667 45.5807916937054  13.2118055555556 50.7549210469392  16.3020833333333 55.4964308890331  L 55.625 16.3530175210902  C 50.9375 13.2035474799913  45.7291666666667 11.6288124594419  40 11.6288124594419  C 34.8611111111111 11.6288124594419  30.1215277777778 12.8920614319706  25.78125 15.4185593770279  C 21.4409722222222 17.9450573220852  18.0034722222222 21.3887086307592  15.46875 25.74951330305  C 12.9340277777778 30.1103179753407  11.6666666666667 34.8518278174346  11.6666666666667 39.9740428293316  Z M 76.8229166666667 24.4256975989617  C 78.9409722222222 29.3575600259572  80 34.5403417694138  80 39.9740428293316  C 80 45.4077438892494  78.9409722222222 50.5991780229288  76.8229166666667 55.5483452303699  C 74.7048611111111 60.4975124378109  71.8663194444445 64.7544884274281  68.3072916666667 68.3192731992213  C 64.7482638888889 71.8840579710145  60.4947916666667 74.7220419640926  55.546875 76.8332251784555  C 50.5989583333333 78.9444083928185  45.4166666666667 80  40 80  C 34.5833333333333 80  29.4010416666667 78.9444083928185  24.453125 76.8332251784555  C 19.5052083333333 74.7220419640926  15.2517361111111 71.8840579710145  11.6927083333333 68.3192731992213  C 8.13368055555556 64.7544884274281  5.29513888888889 60.4975124378109  3.17708333333333 55.5483452303699  C 1.05902777777778 50.5991780229288  0 45.4077438892494  0 39.9740428293316  C 0 34.5403417694138  1.05902777777778 29.3575600259572  3.17708333333333 24.4256975989617  C 5.29513888888889 19.4938351719663  8.13368055555556 15.2455115725719  11.6927083333333 11.6807268007787  C 15.2517361111111 8.1159420289855  19.5052083333333 5.27795803590741  24.453125 3.16677482154446  C 29.4010416666667 1.05559160718148  34.5833333333333 0  40 0  C 45.4166666666667 0  50.5989583333333 1.05559160718148  55.546875 3.16677482154446  C 60.4947916666667 5.27795803590741  64.7482638888889 8.1159420289855  68.3072916666667 11.6807268007787  C 71.8663194444445 15.2455115725719  74.7048611111111 19.4938351719663  76.8229166666667 24.4256975989617  Z " fill-rule="nonzero" fill="#000000" stroke="none" transform="matrix(1 0 0 1 160 46 )" />
  </g>
</svg>