<?xml version="1.0" encoding="utf-8"?>
<svg version="1.1" xmlns:xlink="http://www.w3.org/1999/xlink" width="50px" height="50px" xmlns="http://www.w3.org/2000/svg">
  <g transform="matrix(1 0 0 1 -930 -780 )">
    <path d="M 41.2109375 26.4322916666667  C 41.6015625 26.0416666666667  41.796875 25.5533854166667  41.796875 24.9674479166667  C 41.796875 24.3815104166667  41.6015625 23.8932291666667  41.2109375 23.5026041666667  L 29.4270833333333 11.71875  L 26.46484375 8.75651041666667  C 26.07421875 8.36588541666667  25.5859375 8.17057291666667  25 8.17057291666667  C 24.4140625 8.17057291666667  23.92578125 8.36588541666667  23.53515625 8.75651041666667  L 20.5729166666667 11.71875  L 8.7890625 23.5026041666667  C 8.3984375 23.8932291666667  8.203125 24.3815104166667  8.203125 24.9674479166667  C 8.203125 25.5533854166667  8.3984375 26.0416666666667  8.7890625 26.4322916666667  L 11.7513020833333 29.39453125  C 12.1419270833333 29.78515625  12.6302083333333 29.98046875  13.2161458333333 29.98046875  C 13.8020833333333 29.98046875  14.2903645833333 29.78515625  14.6809895833333 29.39453125  L 21 23.2421875  L 21 39.5833333333333  C 20.8333333333333 40.1475694444444  21.0394965277778 40.6358506944444  21.4518229166667 41.0481770833333  C 21.8641493055556 41.4605034722222  22.3524305555556 41.6666666666667  22.9166666666667 41.6666666666667  L 27.0833333333333 41.6666666666667  C 27.6475694444444 41.6666666666667  28.1358506944444 41.4605034722222  28.5481770833333 41.0481770833333  C 28.9605034722222 40.6358506944444  29.1666666666667 40.1475694444444  29 39.5833333333333  L 29 23.2421875  L 35.3190104166667 29.39453125  C 35.7313368055556 29.8068576388889  36.2196180555556 30.0130208333333  36.7838541666667 30.0130208333333  C 37.3480902777778 30.0130208333333  37.8363715277778 29.8068576388889  38.2486979166667 29.39453125  L 41.2109375 26.4322916666667  Z M 46.6471354166667 12.451171875  C 48.8823784722222 16.2814670138889  50 20.4644097222222  50 25  C 50 29.5355902777778  48.8823784722222 33.7185329861111  46.6471354166667 37.548828125  C 44.4118923611111 41.3791232638889  41.3791232638889 44.4118923611111  37.548828125 46.6471354166667  C 33.7185329861111 48.8823784722222  29.5355902777778 50  25 50  C 20.4644097222222 50  16.2814670138889 48.8823784722222  12.451171875 46.6471354166667  C 8.62087673611111 44.4118923611111  5.58810763888889 41.3791232638889  3.35286458333333 37.548828125  C 1.11762152777778 33.7185329861111  0 29.5355902777778  0 25  C 0 20.4644097222222  1.11762152777778 16.2814670138889  3.35286458333333 12.451171875  C 5.58810763888889 8.62087673611111  8.62087673611111 5.58810763888888  12.451171875 3.35286458333333  C 16.2814670138889 1.11762152777777  20.4644097222222 0  25 0  C 29.5355902777778 0  33.7185329861111 1.11762152777777  37.548828125 3.35286458333333  C 41.3791232638889 5.58810763888888  44.4118923611111 8.62087673611111  46.6471354166667 12.451171875  Z " fill-rule="nonzero" fill="#5cbb5f" stroke="none" transform="matrix(1 0 0 1 930 780 )" />
  </g>
</svg>