<?xml version="1.0" encoding="utf-8"?>
<svg version="1.1" xmlns:xlink="http://www.w3.org/1999/xlink" width="50px" height="50px" xmlns="http://www.w3.org/2000/svg">
  <g transform="matrix(1 0 0 1 -990 -840 )">
    <path d="M 41.2434895833333 26.46484375  C 41.6341145833333 26.07421875  41.8294270833333 25.5859375  41.8294270833333 25  C 41.8294270833333 24.4140625  41.6341145833333 23.92578125  41.2434895833333 23.53515625  L 38.28125 20.5729166666667  L 26.4973958333333 8.7890625  C 26.1067708333333 8.3984375  25.6184895833333 8.203125  25.0325520833333 8.203125  C 24.4466145833333 8.203125  23.9583333333333 8.3984375  23.5677083333333 8.7890625  L 20.60546875 11.7513020833333  C 20.21484375 12.1419270833333  20.01953125 12.6302083333333  20.01953125 13.2161458333333  C 20.01953125 13.8020833333333  20.21484375 14.2903645833333  20.60546875 14.6809895833333  L 26.7578125 21  L 10.4166666666667 21  C 9.85243055555556 20.8333333333333  9.36414930555556 21.0394965277778  8.95182291666667 21.4518229166667  C 8.53949652777778 21.8641493055556  8.33333333333333 22.3524305555556  8.33333333333333 22.9166666666667  L 8.33333333333333 27.0833333333333  C 8.33333333333333 27.6475694444444  8.53949652777778 28.1358506944444  8.95182291666667 28.5481770833333  C 9.36414930555556 28.9605034722222  9.85243055555556 29.1666666666667  10.4166666666667 29  L 26.7578125 29  L 20.60546875 35.3190104166667  C 20.1931423611111 35.7313368055556  19.9869791666667 36.2196180555556  19.9869791666667 36.7838541666667  C 19.9869791666667 37.3480902777778  20.1931423611111 37.8363715277778  20.60546875 38.2486979166667  L 23.5677083333333 41.2109375  C 23.9583333333333 41.6015625  24.4466145833333 41.796875  25.0325520833333 41.796875  C 25.6184895833333 41.796875  26.1067708333333 41.6015625  26.4973958333333 41.2109375  L 38.28125 29.4270833333333  L 41.2434895833333 26.46484375  Z M 46.6471354166667 12.451171875  C 48.8823784722222 16.2814670138889  50 20.4644097222222  50 25  C 50 29.5355902777778  48.8823784722222 33.7185329861111  46.6471354166667 37.548828125  C 44.4118923611111 41.3791232638889  41.3791232638889 44.4118923611111  37.548828125 46.6471354166667  C 33.7185329861111 48.8823784722222  29.5355902777778 50  25 50  C 20.4644097222222 50  16.2814670138889 48.8823784722222  12.451171875 46.6471354166667  C 8.62087673611111 44.4118923611111  5.58810763888889 41.3791232638889  3.35286458333333 37.548828125  C 1.11762152777778 33.7185329861111  0 29.5355902777778  0 25  C 0 20.4644097222222  1.11762152777778 16.2814670138889  3.35286458333333 12.451171875  C 5.58810763888889 8.62087673611111  8.62087673611111 5.58810763888888  12.451171875 3.35286458333333  C 16.2814670138889 1.11762152777777  20.4644097222222 0  25 0  C 29.5355902777778 0  33.7185329861111 1.11762152777777  37.548828125 3.35286458333333  C 41.3791232638889 5.58810763888888  44.4118923611111 8.62087673611111  46.6471354166667 12.451171875  Z " fill-rule="nonzero" fill="#383894" stroke="none" transform="matrix(1 0 0 1 990 840 )" />
  </g>
</svg>